<?xml version="1.0" encoding="UTF-8"?>
<svg width="240px" height="180px" viewBox="0 0 240 180" version="1.1" xmlns="http://www.w3.org/2000/svg" xmlns:xlink="http://www.w3.org/1999/xlink">
    <!-- Generator: Sketch 57.1 (83088) - https://sketch.com -->
    <title>“</title>
    <desc>Created with Sketch.</desc>
    <g id="Wireframes" stroke="none" stroke-width="1" fill="none" fill-rule="evenodd" opacity="0.1">
        <g id="04---TrustVault-Platform" transform="translate(-600.000000, -1995.000000)" fill="#EF3D5B" fill-rule="nonzero">
            <g id="Group-8" transform="translate(350.000000, 1890.000000)">
                <path d="M483.368421,105 L489.052632,137.842105 C465.894512,140.368421 449.683992,147.736855 440.421053,159.947368 C431.157901,172.157882 426.526316,189.631579 426.526316,212.368421 L460,212.368421 L460,285 L383.578947,285 L383.578947,216.157895 C383.578947,178.684223 393.157888,150.89475 412.315789,132.789474 C431.473691,114.682347 455.157901,105.419177 483.368421,105 Z M350.736842,105 L356.421053,137.842105 C333.263155,140.368421 317.052635,147.736855 307.789474,159.947368 C298.526322,172.157882 293.894737,189.631579 293.894737,212.368421 L327.368421,212.368421 L327.368421,285 L250.947368,285 L250.947368,216.157895 C250.947368,178.684223 260.526319,150.89475 279.684211,132.789474 C298.842102,114.682347 322.526313,105.419177 350.736842,105 Z" id="“"></path>
            </g>
        </g>
    </g>
</svg>